<svg width="198" height="58" fill="none" xmlns="http://www.w3.org/2000/svg"><g clip-path="url(#a)"><path d="M77.084 24.504c.426 0 .844-.033 1.254-.099.41-.066.818-.161 1.221-.286a7.751 7.751 0 0 0 1.177-.473 1.16 1.16 0 0 0 .671-.847c.08-.388-.025-.766-.319-1.133a1.152 1.152 0 0 0-.759-.462c-.3-.044-.605.008-.913.154-.366.19-.748.323-1.144.396-.396.074-.792.11-1.188.11a6.097 6.097 0 0 1-2.002-.319 4.292 4.292 0 0 1-1.606-.979c-.454-.44-.81-.99-1.067-1.65-.256-.66-.385-1.437-.385-2.332 0-.762.114-1.46.341-2.09a4.613 4.613 0 0 1 1.001-1.639c.44-.462.972-.817 1.595-1.067.624-.25 1.331-.374 2.123-.374a5.515 5.515 0 0 1 2.332.506c.308.147.613.206.913.176a1 1 0 0 0 .737-.44c.279-.337.385-.711.32-1.122a1.168 1.168 0 0 0-.672-.902 7.687 7.687 0 0 0-1.738-.638 8.14 8.14 0 0 0-1.892-.22c-1.144 0-2.2.195-3.168.583a7.607 7.607 0 0 0-2.519 1.628 7.252 7.252 0 0 0-1.65 2.475c-.388.954-.583 1.995-.583 3.124 0 1.306.213 2.453.638 3.443.426.99 1.009 1.815 1.75 2.475a7.605 7.605 0 0 0 2.53 1.496 8.874 8.874 0 0 0 3.002.506Zm11.176 0c.558 0 1.075-.091 1.551-.275a5.129 5.129 0 0 0 1.243-.67c.212-.16.396-.319.555-.48l.106-.116.007.139c.025.26.114.487.267.683l.1.114c.249.257.564.385.945.385.382 0 .697-.128.946-.385a1.32 1.32 0 0 0 .374-.957v-9.306c0-.396-.124-.718-.374-.968s-.564-.374-.946-.374c-.381 0-.696.129-.946.385-.25.257-.374.576-.374.957v.03a4.72 4.72 0 0 0-.206-.183l-.223-.177a5.19 5.19 0 0 0-1.375-.726 5.083 5.083 0 0 0-1.738-.286c-.982 0-1.877.26-2.684.781-.806.52-1.448 1.24-1.925 2.156-.476.917-.715 1.977-.715 3.18 0 1.187.239 2.24.715 3.156.477.917 1.126 1.636 1.947 2.156a5.03 5.03 0 0 0 2.75.781Zm.33-2.42c-.63 0-1.188-.161-1.672-.484a3.268 3.268 0 0 1-1.133-1.32c-.271-.557-.407-1.18-.407-1.87 0-.704.136-1.334.407-1.892a3.267 3.267 0 0 1 1.133-1.32c.484-.322 1.042-.484 1.672-.484.646 0 1.21.162 1.694.484.484.323.862.763 1.133 1.32.272.558.407 1.188.407 1.892 0 .69-.135 1.313-.407 1.87a3.27 3.27 0 0 1-1.133 1.32c-.484.323-1.048.484-1.694.484Zm24.728 2.2c.382 0 .697-.128.946-.385.25-.256.374-.575.374-.957V17.31c0-.924-.102-1.763-.308-2.519-.205-.755-.583-1.36-1.133-1.815-.55-.454-1.353-.682-2.409-.682-.645 0-1.228.136-1.749.407-.52.272-.964.602-1.331.99-.366.389-.638.752-.814 1.09l.036-.066-.048-.145a3.967 3.967 0 0 0-.728-1.254l-.162-.175c-.557-.564-1.422-.847-2.596-.847-.484 0-.931.077-1.342.231a4.784 4.784 0 0 0-2.114 1.577l-.086.116v-.362c0-.327-.091-.608-.275-.843l-.099-.114a1.263 1.263 0 0 0-.946-.385c-.381 0-.696.129-.946.385-.25.257-.374.576-.374.957v9.086c0 .382.125.7.374.957.25.257.565.385.946.385.382 0 .697-.128.946-.385a1.32 1.32 0 0 0 .374-.957V17.31c0-.484.1-.92.297-1.309.198-.388.495-.7.891-.935.396-.234.873-.352 1.43-.352.572 0 1.012.118 1.32.352.308.235.521.547.638.935a4.5 4.5 0 0 1 .176 1.31v5.631c0 .382.125.7.374.957.25.257.565.385.946.385.382 0 .697-.128.946-.385.25-.256.374-.575.374-.957V17.31c0-.484.099-.92.297-1.309.198-.388.495-.7.891-.935.396-.234.873-.352 1.43-.352.572 0 1.012.118 1.32.352.308.235.521.547.638.935a4.5 4.5 0 0 1 .176 1.31v5.631c0 .382.125.7.374.957.25.257.565.385.946.385Zm5.324-13.2c.499 0 .858-.077 1.078-.23.22-.155.33-.444.33-.87v-.418c0-.41-.102-.696-.308-.858-.205-.161-.564-.242-1.078-.242-.469 0-.817.077-1.045.231-.227.154-.341.444-.341.87v.417c0 .41.103.697.308.858.206.162.558.242 1.056.242Zm.022 13.2c.382 0 .697-.128.946-.385.25-.256.374-.575.374-.957v-9.086c0-.381-.124-.7-.374-.957a1.261 1.261 0 0 0-.946-.385c-.381 0-.696.129-.946.385a1.32 1.32 0 0 0-.374.957v9.086c0 .382.125.7.374.957.25.257.565.385.946.385Zm12.958 0c.382 0 .697-.128.946-.385.25-.256.374-.575.374-.957V17.31c0-.924-.106-1.763-.319-2.519-.212-.755-.601-1.36-1.166-1.815-.564-.454-1.389-.682-2.475-.682-.498 0-.96.077-1.386.231a4.488 4.488 0 0 0-1.144.605 5.53 5.53 0 0 0-1.022.973l-.1.127v-.374c0-.327-.091-.608-.274-.843l-.1-.114a1.261 1.261 0 0 0-.946-.385c-.381 0-.696.129-.946.385a1.32 1.32 0 0 0-.374.957v9.086c0 .382.125.7.374.957.25.257.565.385.946.385.382 0 .697-.128.946-.385.25-.256.374-.575.374-.957V17.31c0-.484.107-.92.319-1.309.213-.388.521-.7.924-.935.404-.234.899-.352 1.485-.352.602 0 1.064.118 1.386.352.323.235.547.547.671.935.125.389.187.825.187 1.31v5.631c0 .382.125.7.374.957.25.257.565.385.946.385Zm9.504.22c1.115 0 2.123-.256 3.025-.77a5.762 5.762 0 0 0 2.156-2.145c.536-.916.803-1.976.803-3.179 0-1.202-.267-2.262-.803-3.179a5.844 5.844 0 0 0-2.156-2.156c-.902-.52-1.91-.78-3.025-.78-1.114 0-2.123.26-3.025.78a5.851 5.851 0 0 0-2.156 2.156c-.535.917-.803 1.977-.803 3.18 0 1.202.268 2.262.803 3.178a5.77 5.77 0 0 0 2.156 2.145c.902.514 1.911.77 3.025.77Zm0-2.42a3.174 3.174 0 0 1-1.683-.462 3.36 3.36 0 0 1-1.21-1.287c-.3-.55-.451-1.191-.451-1.925 0-.748.151-1.397.451-1.947a3.36 3.36 0 0 1 1.21-1.287 3.174 3.174 0 0 1 1.683-.462c.616 0 1.177.154 1.683.462.506.308.91.737 1.21 1.287.301.55.451 1.2.451 1.947 0 .734-.15 1.375-.451 1.925-.3.55-.704.98-1.21 1.287a3.174 3.174 0 0 1-1.683.462Zm12.254 2.42c.69 0 1.364-.135 2.024-.407a4.179 4.179 0 0 0 1.65-1.199c.44-.528.66-1.166.66-1.914 0-.645-.117-1.177-.352-1.595a3.013 3.013 0 0 0-.924-1.023 5.298 5.298 0 0 0-1.254-.638c-.454-.161-.902-.3-1.342-.418a24.127 24.127 0 0 1-1.199-.363c-.374-.124-.671-.286-.891-.484-.22-.198-.33-.465-.33-.803 0-.366.096-.634.286-.803.191-.168.415-.278.671-.33.257-.051.495-.077.715-.077.543 0 1.023.096 1.441.286.418.19.752.448 1.001.77.191.176.433.275.726.297.294.022.55-.055.77-.23.308-.25.448-.529.418-.837a1.552 1.552 0 0 0-.286-.792 3.53 3.53 0 0 0-1.144-.957 5.582 5.582 0 0 0-1.43-.528 6.633 6.633 0 0 0-1.43-.165c-.718 0-1.404.14-2.057.418a4.029 4.029 0 0 0-1.595 1.188c-.41.514-.616 1.137-.616 1.87 0 .646.125 1.18.374 1.606.25.426.572.767.968 1.023.396.257.833.466 1.309.627.477.162.943.308 1.397.44.44.118.84.242 1.199.374.36.132.649.294.869.484.22.19.33.448.33.77 0 .382-.099.664-.297.847-.198.184-.429.3-.693.352a5.894 5.894 0 0 1-.726.1c-.704 0-1.29-.118-1.76-.353a5.209 5.209 0 0 1-1.342-.99c-.249-.25-.506-.385-.77-.407a1.193 1.193 0 0 0-.748.187c-.366.235-.557.514-.572.836-.014.323.052.587.198.792a4.496 4.496 0 0 0 2.156 1.595c.866.3 1.731.451 2.596.451Zm17.446 0a4.28 4.28 0 0 0 1.551-.275 5.121 5.121 0 0 0 1.243-.67c.211-.16.396-.319.555-.48l.105-.115.008.138c.025.26.114.487.267.683l.099.114c.25.257.565.385.946.385.382 0 .697-.128.946-.385.25-.256.374-.575.374-.957V9.346c0-.396-.124-.718-.374-.968-.249-.25-.564-.374-.946-.374-.381 0-.696.129-.946.385a1.32 1.32 0 0 0-.374.957l-.001 4.318a4.437 4.437 0 0 0-.205-.181l-.223-.177a5.18 5.18 0 0 0-3.113-1.012c-.982 0-1.877.26-2.684.781-.806.52-1.448 1.24-1.925 2.156-.476.917-.715 1.977-.715 3.18 0 1.187.239 2.24.715 3.156.477.917 1.126 1.636 1.947 2.156.822.52 1.738.781 2.75.781Zm.33-2.42c-.63 0-1.188-.161-1.672-.484a3.274 3.274 0 0 1-1.133-1.32c-.271-.557-.407-1.18-.407-1.87 0-.704.136-1.334.407-1.892a3.272 3.272 0 0 1 1.133-1.32c.484-.322 1.042-.484 1.672-.484.646 0 1.21.162 1.694.484.484.323.862.763 1.133 1.32.272.558.407 1.188.407 1.892 0 .69-.135 1.313-.407 1.87a3.266 3.266 0 0 1-1.133 1.32c-.484.323-1.048.484-1.694.484Zm14.058 2.42c.734 0 1.445-.12 2.134-.363.69-.242 1.225-.524 1.606-.847.411-.322.616-.682.616-1.078 0-.293-.106-.55-.319-.77-.212-.22-.48-.33-.803-.33a1.68 1.68 0 0 0-.748.198 10.23 10.23 0 0 0-.539.32 2.915 2.915 0 0 1-.781.318c-.322.088-.755.132-1.298.132a3.378 3.378 0 0 1-2.937-1.683 3.368 3.368 0 0 1-.397-1.028l-.012-.06h7.262a1.4 1.4 0 0 0 .808-.243l.116-.088c.264-.22.404-.506.418-.858 0-.792-.15-1.54-.451-2.244a6.124 6.124 0 0 0-1.221-1.859 5.79 5.79 0 0 0-1.771-1.265 5.005 5.005 0 0 0-2.123-.462c-.968 0-1.884.25-2.75.748-.865.499-1.565 1.214-2.101 2.145-.535.932-.803 2.057-.803 3.377 0 1.13.246 2.142.737 3.036a5.403 5.403 0 0 0 2.112 2.123c.917.52 1.999.781 3.245.781Zm2.309-7.392h-5.763l.014-.073a3.5 3.5 0 0 1 .054-.224l.064-.209c.162-.47.382-.843.66-1.122.279-.278.609-.476.99-.594a4.17 4.17 0 0 1 1.232-.176c.455 0 .884.1 1.287.297.404.198.741.466 1.012.803a2 2 0 0 1 .451 1.144l-.001.154Z" fill="#1B246B"/><path d="M71.716 48.284c.45 0 .815-.151 1.092-.455.278-.303.416-.68.416-1.13v-4.915h4.524a4.42 4.42 0 0 0 2.297-.642l.238-.15c.789-.53 1.426-1.236 1.911-2.12.486-.884.728-1.863.728-2.938 0-1.092-.242-2.08-.728-2.964-.485-.884-1.122-1.586-1.91-2.106-.79-.52-1.634-.78-2.536-.78H71.82c-.45 0-.827.152-1.13.455-.304.304-.456.68-.456 1.131v15.028c0 .45.139.828.416 1.131.278.304.633.455 1.066.455Zm1.507-15.21h4.525c.33 0 .65.135.962.403.312.269.572.62.78 1.053.208.434.312.902.312 1.404 0 .486-.104.95-.312 1.391a3.298 3.298 0 0 1-.78 1.08c-.312.277-.632.415-.962.415h-4.525v-5.746Zm18.915 15.47c.659 0 1.27-.108 1.833-.325a6.059 6.059 0 0 0 1.47-.793c.249-.187.467-.376.654-.566l.126-.136.006.14c.028.324.138.607.332.848l.103.117c.295.304.668.455 1.118.455.45 0 .824-.151 1.118-.455.295-.303.442-.68.442-1.13V35.7c0-.468-.147-.85-.442-1.144-.294-.294-.667-.442-1.118-.442-.45 0-.823.152-1.118.455-.294.304-.442.68-.442 1.131v.037l-.082-.079a5.987 5.987 0 0 0-.204-.174l-.22-.174a6.137 6.137 0 0 0-1.626-.858 6.006 6.006 0 0 0-2.054-.338 5.726 5.726 0 0 0-3.172.923c-.953.616-1.711 1.465-2.275 2.548-.563 1.084-.845 2.336-.845 3.757 0 1.404.282 2.648.845 3.731.564 1.084 1.33 1.933 2.301 2.548.97.616 2.054.923 3.25.923Zm.39-2.86c-.745 0-1.404-.19-1.976-.572a3.863 3.863 0 0 1-1.339-1.56c-.32-.658-.48-1.395-.48-2.21 0-.832.16-1.577.48-2.236a3.862 3.862 0 0 1 1.34-1.56c.571-.381 1.23-.572 1.975-.572.763 0 1.43.19 2.002.572a3.862 3.862 0 0 1 1.34 1.56c.32.659.48 1.404.48 2.236 0 .815-.16 1.552-.48 2.21a3.864 3.864 0 0 1-1.34 1.56c-.572.382-1.24.572-2.002.572Zm17.12 2.86c.919 0 1.773-.108 2.561-.325.789-.216 1.426-.502 1.911-.858.486-.355.728-.75.728-1.183 0-.416-.121-.767-.364-1.053-.242-.286-.589-.429-1.04-.429-.381 0-.667.078-.858.234-.19.156-.407.304-.65.442a2.772 2.772 0 0 1-.78.234 6.904 6.904 0 0 1-1.118.078c-.78 0-1.469-.19-2.067-.572a3.97 3.97 0 0 1-1.404-1.547c-.338-.65-.507-1.39-.507-2.223 0-.85.165-1.599.494-2.249a3.82 3.82 0 0 1 1.417-1.547c.616-.381 1.365-.572 2.249-.572.174 0 .438.03.793.091.356.06.62.143.793.247a2.7 2.7 0 0 1 .494.338c.139.122.299.221.481.3.182.077.412.116.689.116.399 0 .702-.151.91-.455.208-.303.312-.628.312-.975 0-.52-.203-.966-.611-1.339-.407-.372-.979-.663-1.716-.87-.736-.209-1.599-.313-2.587-.313-1.334 0-2.517.308-3.549.923a6.462 6.462 0 0 0-2.418 2.548c-.58 1.084-.871 2.336-.871 3.757 0 1.352.273 2.574.819 3.666a6.345 6.345 0 0 0 2.327 2.587c1.006.633 2.193.95 3.562.95Zm9.814-15.86c.59 0 1.014-.09 1.274-.273.26-.182.39-.524.39-1.027v-.494c0-.485-.121-.823-.364-1.014-.242-.19-.667-.286-1.274-.286-.554 0-.966.091-1.235.273-.268.182-.403.525-.403 1.027v.494c0 .486.122.824.364 1.014.243.19.659.286 1.248.286Zm.026 15.6c.451 0 .824-.151 1.118-.455.295-.303.442-.68.442-1.13V35.96c0-.45-.147-.827-.442-1.13-.294-.304-.667-.456-1.118-.456-.45 0-.823.152-1.118.455-.294.304-.442.68-.442 1.131v10.738c0 .45.148.828.442 1.131.295.304.668.455 1.118.455Zm12.18.26c.867 0 1.708-.143 2.522-.429.815-.286 1.448-.62 1.898-1 .486-.382.728-.807.728-1.275 0-.346-.125-.65-.377-.91a1.263 1.263 0 0 0-.949-.39c-.277 0-.572.078-.884.234-.19.104-.403.23-.637.377-.234.148-.541.273-.923.377-.381.104-.892.156-1.534.156a4.019 4.019 0 0 1-1.963-.507c-.615-.338-1.118-.832-1.508-1.482a3.963 3.963 0 0 1-.469-1.215l-.014-.072h8.582c.357 0 .675-.095.955-.286l.137-.104c.312-.26.477-.598.494-1.014a6.67 6.67 0 0 0-.533-2.652 7.254 7.254 0 0 0-1.443-2.197 6.846 6.846 0 0 0-2.093-1.495 5.914 5.914 0 0 0-2.509-.546 6.41 6.41 0 0 0-3.25.884c-1.022.59-1.85 1.435-2.483 2.535-.632 1.1-.949 2.431-.949 3.991 0 1.335.291 2.53.871 3.588.581 1.058 1.413 1.894 2.496 2.51 1.084.615 2.362.922 3.835.922Zm2.73-8.736h-6.813l.032-.154c.018-.079.037-.155.058-.229l.067-.215c.191-.554.451-.996.78-1.326.33-.33.72-.563 1.17-.702a4.928 4.928 0 0 1 1.456-.208c.538 0 1.045.117 1.521.351.477.234.876.55 1.196.95.321.398.499.849.533 1.351v.182Zm17.484 8.476c.451 0 .824-.151 1.118-.455.295-.303.442-.68.442-1.13v-6.657c0-1.092-.125-2.084-.377-2.977-.251-.892-.71-1.607-1.378-2.145-.667-.537-1.642-.806-2.925-.806a4.78 4.78 0 0 0-1.638.273c-.502.182-.953.42-1.352.715a6.526 6.526 0 0 0-1.208 1.15l-.118.15v-.442c0-.394-.113-.732-.338-1.014l-.104-.117c-.294-.303-.667-.455-1.118-.455-.45 0-.823.152-1.118.455-.294.304-.442.68-.442 1.131v10.738c0 .45.148.828.442 1.131.295.304.668.455 1.118.455.451 0 .824-.151 1.118-.455.295-.303.442-.68.442-1.13v-6.657c0-.572.126-1.087.377-1.547.252-.46.616-.827 1.092-1.105.477-.277 1.062-.416 1.755-.416.711 0 1.257.139 1.638.416.382.278.646.646.793 1.105.148.46.221.975.221 1.547v6.656c0 .45.148.828.442 1.131.295.304.668.455 1.118.455Zm11.114 0c.607 0 1.175-.156 1.703-.468.529-.312.793-.71.793-1.196 0-.398-.099-.71-.299-.936-.199-.225-.42-.338-.663-.338-.225 0-.424.04-.598.117a1.377 1.377 0 0 1-.572.117c-.19 0-.368-.034-.533-.104a.828.828 0 0 1-.39-.338c-.095-.156-.143-.355-.143-.598v-7.046h1.846c.364 0 .675-.103.933-.308l.107-.095c.278-.268.416-.602.416-1 0-.417-.138-.763-.416-1.04a1.41 1.41 0 0 0-1.04-.417h-1.846V32.97c0-.394-.109-.732-.328-1.014l-.101-.117c-.286-.303-.654-.455-1.105-.455-.45 0-.827.152-1.131.455-.303.304-.455.68-.455 1.131v1.664h-1.196c-.364 0-.675.103-.932.309l-.108.094a1.338 1.338 0 0 0-.416 1.001c0 .416.139.763.416 1.04.278.278.624.416 1.04.416h1.196v7.176c0 .755.103 1.366.308 1.834l.082.168c.26.486.585.845.975 1.08.39.233.806.38 1.248.441.442.06.845.091 1.209.091Zm12.752.26c.867 0 1.708-.143 2.522-.429.815-.286 1.448-.62 1.898-1 .486-.382.728-.807.728-1.275 0-.346-.125-.65-.377-.91a1.263 1.263 0 0 0-.949-.39c-.277 0-.572.078-.884.234-.19.104-.403.23-.637.377-.234.148-.541.273-.923.377-.381.104-.892.156-1.534.156a4.019 4.019 0 0 1-1.963-.507c-.615-.338-1.118-.832-1.508-1.482a3.963 3.963 0 0 1-.469-1.215l-.014-.072h8.582c.357 0 .675-.095.955-.286l.137-.104c.312-.26.477-.598.494-1.014a6.67 6.67 0 0 0-.533-2.652 7.254 7.254 0 0 0-1.443-2.197 6.846 6.846 0 0 0-2.093-1.495 5.914 5.914 0 0 0-2.509-.546 6.41 6.41 0 0 0-3.25.884c-1.022.59-1.85 1.435-2.483 2.535-.632 1.1-.949 2.431-.949 3.991 0 1.335.291 2.53.871 3.588.581 1.058 1.413 1.894 2.496 2.51 1.084.615 2.362.922 3.835.922Zm2.73-8.736h-6.813l.032-.154c.018-.079.037-.155.058-.229l.067-.215c.191-.554.451-.996.78-1.326.33-.33.72-.563 1.17-.702a4.928 4.928 0 0 1 1.456-.208c.538 0 1.045.117 1.521.351.477.234.876.55 1.196.95.321.398.499.849.533 1.351v.182Zm11.738 8.736c.815 0 1.612-.16 2.392-.48.78-.321 1.43-.794 1.95-1.418.52-.624.78-1.378.78-2.262 0-.762-.138-1.39-.416-1.885a3.57 3.57 0 0 0-1.092-1.209 6.25 6.25 0 0 0-1.482-.754 20.587 20.587 0 0 0-1.586-.494 28.505 28.505 0 0 1-1.417-.429c-.442-.147-.793-.338-1.053-.572-.26-.234-.39-.55-.39-.949 0-.433.113-.75.338-.949.226-.2.49-.33.793-.39a4.33 4.33 0 0 1 .845-.09c.642 0 1.209.112 1.703.337.494.226.889.529 1.183.91.226.208.512.325.858.351.347.026.65-.065.91-.273.364-.294.529-.624.494-.988a1.836 1.836 0 0 0-.338-.936 4.17 4.17 0 0 0-1.352-1.13 6.6 6.6 0 0 0-1.69-.625 7.84 7.84 0 0 0-1.69-.195 6.13 6.13 0 0 0-2.431.494c-.771.33-1.399.798-1.885 1.404-.485.607-.728 1.344-.728 2.21 0 .763.148 1.396.442 1.898.295.503.676.906 1.144 1.21.468.303.984.55 1.547.74.564.19 1.114.364 1.651.52.52.139.993.286 1.417.442.425.156.767.347 1.027.572.26.226.39.529.39.91 0 .45-.117.785-.351 1.001a1.646 1.646 0 0 1-.819.416c-.312.06-.598.1-.858.117-.832 0-1.525-.138-2.08-.416a6.154 6.154 0 0 1-1.586-1.17c-.294-.294-.598-.455-.91-.48a1.41 1.41 0 0 0-.884.22c-.433.278-.658.607-.676.988-.017.382.061.694.234.936.676.902 1.526 1.53 2.548 1.885a9.302 9.302 0 0 0 3.068.533Z" fill="#1C246C"/><path d="M54.3 26.015 30.553 2.27a3.21 3.21 0 0 0-4.539 0L2.27 26.015a3.21 3.21 0 0 0 0 4.538L26.015 54.3a3.209 3.209 0 0 0 4.538 0L54.3 30.554a3.209 3.209 0 0 0 0-4.539Z" fill="#EF6B6B"/><path d="M31.53 18.284v7.452c1.485-.983 2.71-.983 4.1-.983h2.154v-.969l5 5-5 5v-1.268H35.63c-2.215-.043-4.047 1.8-4.1 4.125v4.643h-7.398v-8.467h-8.847v-7.475h8.847v-7.058h-1.347l5-5 5 5H31.53Z" fill="#fff"/></g><defs><clipPath id="a"><path fill="#fff" transform="translate(1.284 1.004)" d="M0 0h195v55H0z"/></clipPath></defs></svg>