<svg width="195" height="55" fill="none" xmlns="http://www.w3.org/2000/svg"><path d="M75.8 23.5c.425 0 .843-.033 1.254-.099a8.92 8.92 0 0 0 1.221-.286 7.737 7.737 0 0 0 1.177-.473 1.16 1.16 0 0 0 .671-.847c.08-.389-.026-.766-.319-1.133a1.152 1.152 0 0 0-.759-.462c-.3-.044-.605.007-.913.154-.367.19-.748.323-1.144.396-.396.073-.792.11-1.188.11a6.095 6.095 0 0 1-2.002-.319 4.293 4.293 0 0 1-1.606-.979c-.455-.44-.81-.99-1.067-1.65-.257-.66-.385-1.437-.385-2.332 0-.763.114-1.46.341-2.09a4.456 4.456 0 0 1 2.596-2.706c.623-.25 1.331-.374 2.123-.374a5.515 5.515 0 0 1 2.332.506c.308.147.612.205.913.176a1 1 0 0 0 .737-.44c.279-.337.385-.711.319-1.122a1.168 1.168 0 0 0-.671-.902 7.687 7.687 0 0 0-1.738-.638 8.14 8.14 0 0 0-1.892-.22c-1.144 0-2.2.194-3.168.583a7.607 7.607 0 0 0-2.519 1.628 7.257 7.257 0 0 0-1.65 2.475c-.389.953-.583 1.995-.583 3.124 0 1.305.213 2.453.638 3.443.425.99 1.008 1.815 1.749 2.475a7.605 7.605 0 0 0 2.53 1.496 8.874 8.874 0 0 0 3.003.506Zm11.176 0c.557 0 1.074-.092 1.551-.275a5.123 5.123 0 0 0 1.243-.671c.211-.158.396-.318.554-.48l.107-.115.007.139c.025.26.114.487.267.683l.099.114c.25.257.565.385.946.385s.697-.128.946-.385a1.32 1.32 0 0 0 .374-.957v-9.306c0-.396-.125-.719-.374-.968-.25-.25-.565-.374-.946-.374s-.697.128-.946.385a1.32 1.32 0 0 0-.374.957v.029a4.787 4.787 0 0 0-.206-.183L90 12.302a5.196 5.196 0 0 0-1.375-.726 5.082 5.082 0 0 0-1.738-.286c-.983 0-1.877.26-2.684.781-.807.52-1.448 1.24-1.925 2.156-.477.917-.715 1.976-.715 3.179 0 1.188.238 2.24.715 3.157.477.917 1.126 1.635 1.947 2.156a5.03 5.03 0 0 0 2.75.781Zm.33-2.42c-.63 0-1.188-.161-1.672-.484a3.268 3.268 0 0 1-1.133-1.32c-.271-.557-.407-1.18-.407-1.87 0-.704.136-1.335.407-1.892a3.268 3.268 0 0 1 1.133-1.32c.484-.323 1.041-.484 1.672-.484.645 0 1.21.161 1.694.484.484.323.862.763 1.133 1.32s.407 1.188.407 1.892c0 .69-.136 1.313-.407 1.87A3.268 3.268 0 0 1 89 20.596c-.484.323-1.049.484-1.694.484Zm24.728 2.2c.381 0 .697-.128.946-.385a1.32 1.32 0 0 0 .374-.957v-5.632c0-.924-.103-1.764-.308-2.519-.205-.755-.583-1.36-1.133-1.815-.55-.455-1.353-.682-2.409-.682a3.73 3.73 0 0 0-1.749.407 4.96 4.96 0 0 0-1.331.99c-.367.389-.638.752-.814 1.089l.036-.065-.048-.146a3.95 3.95 0 0 0-.729-1.254l-.161-.174c-.557-.565-1.423-.847-2.596-.847-.484 0-.931.077-1.342.231a4.764 4.764 0 0 0-2.115 1.577l-.085.116v-.362c0-.327-.092-.608-.275-.843l-.099-.114a1.263 1.263 0 0 0-.946-.385c-.381 0-.697.128-.946.385a1.32 1.32 0 0 0-.374.957v9.086c0 .381.125.7.374.957.25.257.565.385.946.385s.697-.128.946-.385a1.32 1.32 0 0 0 .374-.957v-5.632c0-.484.099-.92.297-1.309.198-.389.495-.7.891-.935.396-.235.873-.352 1.43-.352.572 0 1.012.117 1.32.352.308.235.521.546.638.935.117.389.176.825.176 1.309v5.632c0 .381.125.7.374.957s.565.385.946.385.697-.128.946-.385a1.32 1.32 0 0 0 .374-.957v-5.632c0-.484.099-.92.297-1.309.198-.389.495-.7.891-.935.396-.235.873-.352 1.43-.352.572 0 1.012.117 1.32.352.308.235.521.546.638.935.117.389.176.825.176 1.309v5.632c0 .381.125.7.374.957s.565.385.946.385Zm5.324-13.2c.499 0 .858-.077 1.078-.231.22-.154.33-.444.33-.869v-.418c0-.41-.103-.697-.308-.858-.205-.161-.565-.242-1.078-.242-.469 0-.818.077-1.045.231-.227.154-.341.444-.341.869v.418c0 .41.103.697.308.858.205.161.557.242 1.056.242Zm.022 13.2c.381 0 .697-.128.946-.385a1.32 1.32 0 0 0 .374-.957v-9.086c0-.381-.125-.7-.374-.957a1.263 1.263 0 0 0-.946-.385c-.381 0-.697.128-.946.385a1.32 1.32 0 0 0-.374.957v9.086c0 .381.125.7.374.957s.565.385.946.385Zm12.958 0c.381 0 .697-.128.946-.385a1.32 1.32 0 0 0 .374-.957v-5.632c0-.924-.106-1.764-.319-2.519-.213-.755-.601-1.36-1.166-1.815-.565-.455-1.39-.682-2.475-.682a4.04 4.04 0 0 0-1.386.231 4.474 4.474 0 0 0-1.144.605 5.486 5.486 0 0 0-1.023.972l-.099.128v-.374c0-.327-.092-.608-.275-.843l-.099-.114a1.263 1.263 0 0 0-.946-.385c-.381 0-.697.128-.946.385a1.32 1.32 0 0 0-.374.957v9.086c0 .381.125.7.374.957s.565.385.946.385.697-.128.946-.385a1.32 1.32 0 0 0 .374-.957v-5.632c0-.484.106-.92.319-1.309.213-.389.521-.7.924-.935.403-.235.898-.352 1.485-.352.601 0 1.063.117 1.386.352.323.235.546.546.671.935s.187.825.187 1.309v5.632c0 .381.125.7.374.957s.565.385.946.385Zm9.504.22c1.115 0 2.123-.257 3.025-.77a5.76 5.76 0 0 0 2.156-2.145c.535-.917.803-1.976.803-3.179 0-1.203-.268-2.262-.803-3.179a5.845 5.845 0 0 0-2.156-2.156c-.902-.52-1.91-.781-3.025-.781s-2.123.26-3.025.781a5.845 5.845 0 0 0-2.156 2.156c-.535.917-.803 1.976-.803 3.179 0 1.203.268 2.262.803 3.179a5.76 5.76 0 0 0 2.156 2.145c.902.513 1.91.77 3.025.77Zm0-2.42a3.174 3.174 0 0 1-1.683-.462 3.36 3.36 0 0 1-1.21-1.287c-.301-.55-.451-1.192-.451-1.925 0-.748.15-1.397.451-1.947a3.36 3.36 0 0 1 1.21-1.287 3.174 3.174 0 0 1 1.683-.462c.616 0 1.177.154 1.683.462a3.36 3.36 0 0 1 1.21 1.287c.301.55.451 1.199.451 1.947 0 .733-.15 1.375-.451 1.925a3.36 3.36 0 0 1-1.21 1.287 3.174 3.174 0 0 1-1.683.462Zm12.254 2.42a5.28 5.28 0 0 0 2.024-.407 4.178 4.178 0 0 0 1.65-1.199c.44-.528.66-1.166.66-1.914 0-.645-.117-1.177-.352-1.595a3.033 3.033 0 0 0-.924-1.023 5.298 5.298 0 0 0-1.254-.638c-.455-.161-.902-.3-1.342-.418a23.916 23.916 0 0 1-1.199-.363c-.374-.125-.671-.286-.891-.484-.22-.198-.33-.466-.33-.803 0-.367.095-.634.286-.803.191-.169.414-.279.671-.33.257-.051.495-.077.715-.077.543 0 1.023.095 1.441.286.418.19.752.447 1.001.77.191.176.433.275.726.297.293.022.55-.055.77-.231.308-.25.447-.528.418-.836a1.562 1.562 0 0 0-.286-.792 3.53 3.53 0 0 0-1.144-.957 5.596 5.596 0 0 0-1.43-.528 6.64 6.64 0 0 0-1.43-.165c-.719 0-1.404.14-2.057.418a4.024 4.024 0 0 0-1.595 1.188c-.411.513-.616 1.137-.616 1.87 0 .645.125 1.18.374 1.606.249.425.572.766.968 1.023.396.257.832.466 1.309.627.477.161.942.308 1.397.44.44.117.84.242 1.199.374.359.132.649.293.869.484.22.19.33.447.33.77 0 .381-.099.664-.297.847-.198.183-.429.3-.693.352a5.894 5.894 0 0 1-.726.099c-.704 0-1.291-.117-1.76-.352a5.192 5.192 0 0 1-1.342-.99c-.249-.25-.506-.385-.77-.407a1.193 1.193 0 0 0-.748.187c-.367.235-.557.513-.572.836-.015.323.051.587.198.792a4.495 4.495 0 0 0 2.156 1.595c.865.3 1.731.451 2.596.451Zm17.446 0c.557 0 1.074-.092 1.551-.275a5.118 5.118 0 0 0 1.243-.671 4.87 4.87 0 0 0 .554-.48l.106-.114.008.138c.025.26.114.487.267.683l.099.114c.249.257.565.385.946.385s.697-.128.946-.385a1.32 1.32 0 0 0 .374-.957V8.342c0-.396-.125-.719-.374-.968-.249-.25-.565-.374-.946-.374s-.697.128-.946.385a1.32 1.32 0 0 0-.374.957l-.001 4.318a5.028 5.028 0 0 0-.205-.182l-.223-.176a5.2 5.2 0 0 0-1.375-.726 5.081 5.081 0 0 0-1.738-.286c-.983 0-1.877.26-2.684.781-.807.52-1.448 1.24-1.925 2.156-.477.917-.715 1.976-.715 3.179 0 1.188.238 2.24.715 3.157.477.917 1.126 1.635 1.947 2.156.821.52 1.738.781 2.75.781Zm.33-2.42c-.631 0-1.188-.161-1.672-.484a3.266 3.266 0 0 1-1.133-1.32c-.271-.557-.407-1.18-.407-1.87 0-.704.136-1.335.407-1.892a3.266 3.266 0 0 1 1.133-1.32c.484-.323 1.041-.484 1.672-.484.645 0 1.21.161 1.694.484.484.323.862.763 1.133 1.32s.407 1.188.407 1.892c0 .69-.136 1.313-.407 1.87a3.266 3.266 0 0 1-1.133 1.32c-.484.323-1.049.484-1.694.484Zm14.058 2.42c.733 0 1.445-.121 2.134-.363.689-.242 1.225-.524 1.606-.847.411-.323.616-.682.616-1.078 0-.293-.106-.55-.319-.77a1.07 1.07 0 0 0-.803-.33c-.235 0-.484.066-.748.198a10.23 10.23 0 0 0-.539.319 2.912 2.912 0 0 1-.781.319c-.323.088-.755.132-1.298.132-.587 0-1.14-.143-1.661-.429a3.37 3.37 0 0 1-1.276-1.254 3.343 3.343 0 0 1-.397-1.029l-.012-.06h7.262a1.4 1.4 0 0 0 .808-.242l.116-.088a1.13 1.13 0 0 0 .418-.858c0-.792-.15-1.54-.451-2.244a6.162 6.162 0 0 0-1.221-1.859 5.804 5.804 0 0 0-1.771-1.265 5.005 5.005 0 0 0-2.123-.462c-.968 0-1.885.25-2.75.748-.865.499-1.566 1.214-2.101 2.145-.535.931-.803 2.057-.803 3.377 0 1.13.246 2.141.737 3.036a5.39 5.39 0 0 0 2.112 2.123c.917.52 1.998.781 3.245.781Zm2.309-7.392h-5.763l.013-.073c.017-.077.035-.152.055-.224l.064-.209c.161-.47.381-.843.66-1.122.279-.279.609-.477.99-.594a4.169 4.169 0 0 1 1.232-.176c.455 0 .884.099 1.287.297.403.198.741.466 1.012.803s.422.719.451 1.144l-.001.154ZM70.432 47.28c.45 0 .815-.152 1.092-.455.277-.303.416-.68.416-1.131l-.001-4.914h4.525a4.42 4.42 0 0 0 2.297-.642l.238-.151c.789-.529 1.426-1.235 1.911-2.119.485-.884.728-1.863.728-2.938 0-1.092-.243-2.08-.728-2.964-.485-.884-1.122-1.586-1.911-2.106-.789-.52-1.634-.78-2.535-.78h-5.928c-.45 0-.828.152-1.131.455-.303.303-.455.68-.455 1.131v15.028c0 .45.139.828.416 1.131.277.303.633.455 1.066.455Zm1.507-15.21h4.525c.33 0 .65.134.962.403.312.269.572.62.78 1.053.208.433.312.901.312 1.404 0 .485-.104.949-.312 1.391a3.297 3.297 0 0 1-.78 1.079c-.312.277-.633.416-.962.416h-4.525V32.07Zm18.915 15.47c.659 0 1.27-.108 1.833-.325a6.059 6.059 0 0 0 1.469-.793c.25-.187.468-.376.655-.566l.126-.136.006.14c.028.324.138.607.331.848l.104.117c.295.303.667.455 1.118.455.45 0 .823-.152 1.118-.455.295-.303.442-.68.442-1.131V34.696c0-.468-.147-.85-.442-1.144-.295-.295-.667-.442-1.118-.442-.45 0-.823.152-1.118.455-.295.303-.442.68-.442 1.131v.037l-.082-.079a5.992 5.992 0 0 0-.204-.174l-.221-.174a6.135 6.135 0 0 0-1.625-.858 6.008 6.008 0 0 0-2.054-.338 5.728 5.728 0 0 0-3.172.923c-.953.615-1.712 1.465-2.275 2.548s-.845 2.336-.845 3.757c0 1.404.282 2.648.845 3.731.563 1.083 1.33 1.933 2.301 2.548.97.615 2.054.923 3.25.923Zm.39-2.86c-.745 0-1.404-.19-1.976-.572a3.862 3.862 0 0 1-1.339-1.56c-.32-.659-.481-1.395-.481-2.21 0-.832.16-1.577.481-2.236a3.862 3.862 0 0 1 1.339-1.56c.572-.381 1.23-.572 1.976-.572.763 0 1.43.19 2.002.572a3.862 3.862 0 0 1 1.339 1.56c.32.659.481 1.404.481 2.236 0 .815-.16 1.551-.481 2.21a3.862 3.862 0 0 1-1.339 1.56c-.572.381-1.24.572-2.002.572Zm17.12 2.86c.919 0 1.772-.108 2.561-.325.789-.217 1.426-.503 1.911-.858.485-.355.728-.75.728-1.183 0-.416-.121-.767-.364-1.053-.243-.286-.589-.429-1.04-.429-.381 0-.667.078-.858.234a4.733 4.733 0 0 1-.65.442 2.772 2.772 0 0 1-.78.234 6.912 6.912 0 0 1-1.118.078c-.78 0-1.469-.19-2.067-.572a3.969 3.969 0 0 1-1.404-1.547c-.338-.65-.507-1.391-.507-2.223 0-.85.165-1.599.494-2.249a3.812 3.812 0 0 1 1.417-1.547c.615-.381 1.365-.572 2.249-.572.173 0 .438.03.793.091.355.06.62.143.793.247.191.104.355.217.494.338.139.121.299.221.481.299.182.078.412.117.689.117.399 0 .702-.152.91-.455.208-.303.312-.628.312-.975 0-.52-.204-.966-.611-1.339-.407-.373-.979-.663-1.716-.871-.737-.208-1.599-.312-2.587-.312-1.335 0-2.518.308-3.549.923a6.463 6.463 0 0 0-2.418 2.548c-.581 1.083-.871 2.336-.871 3.757 0 1.352.273 2.574.819 3.666a6.345 6.345 0 0 0 2.327 2.587c1.005.633 2.193.949 3.562.949Zm9.814-15.86c.589 0 1.014-.091 1.274-.273.26-.182.39-.524.39-1.027v-.494c0-.485-.121-.823-.364-1.014-.243-.19-.667-.286-1.274-.286-.555 0-.966.091-1.235.273-.269.182-.403.524-.403 1.027v.494c0 .485.121.823.364 1.014.243.19.659.286 1.248.286Zm.026 15.6c.451 0 .823-.152 1.118-.455.295-.303.442-.68.442-1.131V34.956c0-.45-.147-.828-.442-1.131-.295-.303-.667-.455-1.118-.455-.451 0-.823.152-1.118.455-.295.303-.442.68-.442 1.131v10.738c0 .45.147.828.442 1.131.295.303.667.455 1.118.455Zm12.18.26a7.56 7.56 0 0 0 2.522-.429c.815-.286 1.447-.62 1.898-1.001.485-.381.728-.806.728-1.274 0-.347-.126-.65-.377-.91a1.265 1.265 0 0 0-.949-.39c-.277 0-.572.078-.884.234-.191.104-.403.23-.637.377-.234.147-.542.273-.923.377-.381.104-.893.156-1.534.156a4.016 4.016 0 0 1-1.963-.507c-.615-.338-1.118-.832-1.508-1.482a3.938 3.938 0 0 1-.469-1.216l-.014-.071h8.582c.357 0 .675-.096.955-.287l.137-.103c.312-.26.477-.598.494-1.014 0-.936-.178-1.82-.533-2.652a7.256 7.256 0 0 0-1.443-2.197 6.858 6.858 0 0 0-2.093-1.495 5.917 5.917 0 0 0-2.509-.546 6.41 6.41 0 0 0-3.25.884c-1.023.59-1.85 1.434-2.483 2.535-.633 1.1-.949 2.431-.949 3.991 0 1.335.29 2.53.871 3.588.581 1.057 1.413 1.894 2.496 2.509s2.362.923 3.835.923Zm2.73-8.736h-6.813l.032-.154c.018-.079.037-.155.058-.23l.067-.214c.191-.555.451-.997.78-1.326.329-.33.719-.563 1.17-.702a4.928 4.928 0 0 1 1.456-.208c.537 0 1.044.117 1.521.351.477.234.875.55 1.196.949.321.399.498.85.533 1.352v.182Zm17.484 8.476c.451 0 .823-.152 1.118-.455.295-.303.442-.68.442-1.131v-6.656c0-1.092-.126-2.084-.377-2.977-.251-.893-.711-1.608-1.378-2.145-.667-.537-1.642-.806-2.925-.806a4.78 4.78 0 0 0-1.638.273c-.503.182-.953.42-1.352.715a6.487 6.487 0 0 0-1.208 1.15l-.118.15v-.442c0-.394-.113-.732-.338-1.014l-.104-.117c-.295-.303-.667-.455-1.118-.455-.451 0-.823.152-1.118.455-.295.303-.442.68-.442 1.131v10.738c0 .45.147.828.442 1.131.295.303.667.455 1.118.455.451 0 .823-.152 1.118-.455.295-.303.442-.68.442-1.131v-6.656c0-.572.126-1.088.377-1.547a2.84 2.84 0 0 1 1.092-1.105c.477-.277 1.062-.416 1.755-.416.711 0 1.257.139 1.638.416.381.277.646.646.793 1.105.147.46.221.975.221 1.547v6.656c0 .45.147.828.442 1.131.295.303.667.455 1.118.455Zm11.114 0c.607 0 1.174-.156 1.703-.468.529-.312.793-.71.793-1.196 0-.399-.1-.71-.299-.936-.199-.225-.42-.338-.663-.338-.225 0-.425.039-.598.117a1.377 1.377 0 0 1-.572.117 1.36 1.36 0 0 1-.533-.104.818.818 0 0 1-.39-.338c-.095-.156-.143-.355-.143-.598V36.49h1.846c.364 0 .675-.103.933-.309l.107-.094c.277-.269.416-.602.416-1.001 0-.416-.139-.763-.416-1.04a1.41 1.41 0 0 0-1.04-.416h-1.846v-1.664c0-.394-.109-.732-.328-1.014l-.101-.117c-.286-.303-.654-.455-1.105-.455-.451 0-.828.152-1.131.455-.303.303-.455.68-.455 1.131v1.664h-1.196a1.45 1.45 0 0 0-.933.308l-.107.095a1.339 1.339 0 0 0-.416 1.001c0 .416.139.763.416 1.04a1.41 1.41 0 0 0 1.04.416h1.196v7.176c0 .755.103 1.366.308 1.834l.082.168c.26.485.585.845.975 1.079.39.234.806.381 1.248.442.442.06.845.091 1.209.091Zm12.752.26a7.56 7.56 0 0 0 2.522-.429c.815-.286 1.447-.62 1.898-1.001.485-.381.728-.806.728-1.274 0-.347-.126-.65-.377-.91a1.265 1.265 0 0 0-.949-.39c-.277 0-.572.078-.884.234-.191.104-.403.23-.637.377-.234.147-.542.273-.923.377-.381.104-.893.156-1.534.156a4.016 4.016 0 0 1-1.963-.507c-.615-.338-1.118-.832-1.508-1.482a3.938 3.938 0 0 1-.469-1.216l-.014-.071h8.582c.357 0 .675-.096.955-.287l.137-.103c.312-.26.477-.598.494-1.014 0-.936-.178-1.82-.533-2.652a7.256 7.256 0 0 0-1.443-2.197 6.858 6.858 0 0 0-2.093-1.495 5.917 5.917 0 0 0-2.509-.546 6.41 6.41 0 0 0-3.25.884c-1.023.59-1.85 1.434-2.483 2.535-.633 1.1-.949 2.431-.949 3.991 0 1.335.29 2.53.871 3.588.581 1.057 1.413 1.894 2.496 2.509s2.362.923 3.835.923Zm2.73-8.736h-6.813l.032-.154c.018-.079.037-.155.058-.23l.067-.214c.191-.555.451-.997.78-1.326.329-.33.719-.563 1.17-.702a4.928 4.928 0 0 1 1.456-.208c.537 0 1.044.117 1.521.351.477.234.875.55 1.196.949.321.399.498.85.533 1.352v.182Zm11.738 8.736c.815 0 1.612-.16 2.392-.481.78-.32 1.43-.793 1.95-1.417s.78-1.378.78-2.262c0-.763-.139-1.391-.416-1.885a3.57 3.57 0 0 0-1.092-1.209 6.292 6.292 0 0 0-1.482-.754 20.631 20.631 0 0 0-1.586-.494 28.185 28.185 0 0 1-1.417-.429c-.442-.147-.793-.338-1.053-.572-.26-.234-.39-.55-.39-.949 0-.433.113-.75.338-.949.225-.2.49-.33.793-.39.303-.06.585-.091.845-.091.641 0 1.209.113 1.703.338.494.225.888.529 1.183.91.225.208.511.325.858.351.347.026.65-.065.91-.273.364-.295.529-.624.494-.988a1.845 1.845 0 0 0-.338-.936 4.18 4.18 0 0 0-1.352-1.131 6.613 6.613 0 0 0-1.69-.624 7.848 7.848 0 0 0-1.69-.195c-.849 0-1.66.165-2.431.494-.771.33-1.4.797-1.885 1.404-.485.607-.728 1.343-.728 2.21 0 .763.147 1.395.442 1.898.295.503.676.906 1.144 1.209.468.303.984.55 1.547.741.563.19 1.114.364 1.651.52.52.139.992.286 1.417.442.425.156.767.347 1.027.572.26.225.39.529.39.91 0 .45-.117.784-.351 1.001a1.645 1.645 0 0 1-.819.416c-.312.06-.598.1-.858.117-.832 0-1.525-.139-2.08-.416a6.132 6.132 0 0 1-1.586-1.17c-.295-.295-.598-.455-.91-.481a1.409 1.409 0 0 0-.884.221c-.433.277-.659.607-.676.988-.017.381.061.693.234.936.676.901 1.525 1.53 2.548 1.885a9.297 9.297 0 0 0 3.068.533ZM53.015 25.01 29.27 1.266a3.21 3.21 0 0 0-4.538 0L.985 25.01a3.21 3.21 0 0 0 0 4.538L24.73 53.295a3.21 3.21 0 0 0 4.538 0L53.015 29.55a3.21 3.21 0 0 0 0-4.538Z" fill="#fff"/><path d="M30.245 17.28v7.452c1.486-.983 2.711-.983 4.1-.983H36.5v-.969l5 5-5 5v-1.269h-2.155c-2.215-.042-4.047 1.8-4.1 4.125v4.644h-7.399v-8.467H14v-7.475h8.846V17.28H21.5l5-5 5 5h-1.255Z" fill="#EF6B6B"/></svg>